# xmcd
#
# Track frame offsets: 
#        150
#        6249
#        27665
#        49305
#        74328
#        101572
#        115754
#        124210
#        136681
#        154763
#        169272
#        184398
#        195822
#        211244
#        221557
#        239661
#        260730
#
# Disc length: 3616 seconds
#
# Revision: 0
# Processed by: cddbd v1.5.2PL0 Copyright (c) Steve Scherf et al.
# Submitted via: ExactAudioCopy v0.95a4
#
DISCID=fd0e1e11
DTITLE=Various Artist - Music Maker Biscuits For Your Outside Man
DYEAR=2016
DGENRE=Blues
TTITLE0=Algia Hinton - Cook Cornbread For Your Husband (Biscuits For Y
TTITLE0=our Outside Man)
TTITLE1=Cootie Stark - Shuckin' Corn
TTITLE2=Captain Luke - Poke Salad Annie
TTITLE3=Neal Pattman and Taj Mahal - Shortning Bread
TTITLE4=Drink Small - Livin' In A B.B.Q. World
TTITLE5=George Higgs - Greasy Greens
TTITLE6=Adolphus Bell - Cherry Pie
TTITLE7=Little Pink Anderson - Cook Good Salad
TTITLE8=Guitar Gabriel - Down On The Farm
TTITLE9=Robert Lee Coleman - Cookie Jar
TTITLE10=Algia Mae Hinton - Lima Beans
TTITLE11=Sam Frazier Jr. - Cabbage Man
TTITLE12=Mudcat - Chicken Pie
TTITLE13=Red Rover - Shortnin' Bread
TTITLE14=Mr. Frank Edwards - Chicken Raid
TTITLE15=Big Boy Henry - Old Bill
TTITLE16=John Dee Holeman - Hambone
EXTD=
EXTT0=
EXTT1=
EXTT2=
EXTT3=
EXTT4=
EXTT5=
EXTT6=
EXTT7=
EXTT8=
EXTT9=
EXTT10=
EXTT11=
EXTT12=
EXTT13=
EXTT14=
EXTT15=
EXTT16=
PLAYORDER=
